 <svg xmlns="http://www.w3.org/2000/svg" width="70" height="70" fill="none"><g clip-path="url(#a)"><rect width="68" height="68" x="1" y="1" fill="#000" rx="34"/><path stroke="#3C3C3C" stroke-opacity=".75" stroke-width="1.25" d="M67.773 26.099A34.04 34.04 0 0 1 68.873 37L37 68.872a34.04 34.04 0 0 1-10.901-1.099L67.773 26.1Zm-8.795-15.204a34.137 34.137 0 0 1 5.24 6.758L17.654 64.22a34.137 34.137 0 0 1-6.758-5.24L58.98 10.896Zm1.342 46.658a34.189 34.189 0 0 1-2.767 2.767l2.767-2.767ZM43.773 2.099c3 .805 5.835 2.01 8.446 3.554L5.653 52.22A33.796 33.796 0 0 1 2.1 43.773L43.773 2.1ZM1 32.872A33.858 33.858 0 0 1 9.553 12.32l2.767-2.767A33.858 33.858 0 0 1 32.872 1L1 32.872Z"/></g><rect width="68" height="68" x="1" y="1" stroke="#666" stroke-linejoin="round" stroke-width="1.25" rx="34"/><defs><clipPath id="a"><rect width="68" height="68" x="1" y="1" fill="#fff" rx="34"/></clipPath></defs></svg>